<?xml version="1.0" encoding="utf-8"?>
<svg xmlns="http://www.w3.org/2000/svg" xmlns:xlink="http://www.w3.org/1999/xlink" width="600" height="400" viewBox="0 0 2400 1600">
<defs>
  <clipPath id="clip890">
    <rect x="0" y="0" width="2400" height="1600"/>
  </clipPath>
</defs>
<path clip-path="url(#clip890)" d="M0 1600 L2400 1600 L2400 0 L0 0  Z" fill="#ffffff" fill-rule="evenodd" fill-opacity="1"/>
<defs>
  <clipPath id="clip891">
    <rect x="480" y="0" width="1681" height="1600"/>
  </clipPath>
</defs>
<path clip-path="url(#clip890)" d="M203.964 1423.18 L2352.76 1423.18 L2352.76 123.472 L203.964 123.472  Z" fill="#ffffff" fill-rule="evenodd" fill-opacity="1"/>
<defs>
  <clipPath id="clip892">
    <rect x="203" y="123" width="2150" height="1301"/>
  </clipPath>
</defs>
<polyline clip-path="url(#clip892)" style="stroke:#000000; stroke-linecap:round; stroke-linejoin:round; stroke-width:2; stroke-opacity:0.1; fill:none" points="691.55,1423.18 691.55,123.472 "/>
<polyline clip-path="url(#clip892)" style="stroke:#000000; stroke-linecap:round; stroke-linejoin:round; stroke-width:2; stroke-opacity:0.1; fill:none" points="1225.01,1423.18 1225.01,123.472 "/>
<polyline clip-path="url(#clip892)" style="stroke:#000000; stroke-linecap:round; stroke-linejoin:round; stroke-width:2; stroke-opacity:0.1; fill:none" points="1758.48,1423.18 1758.48,123.472 "/>
<polyline clip-path="url(#clip892)" style="stroke:#000000; stroke-linecap:round; stroke-linejoin:round; stroke-width:2; stroke-opacity:0.1; fill:none" points="2291.94,1423.18 2291.94,123.472 "/>
<polyline clip-path="url(#clip890)" style="stroke:#000000; stroke-linecap:round; stroke-linejoin:round; stroke-width:4; stroke-opacity:1; fill:none" points="203.964,1423.18 2352.76,1423.18 "/>
<polyline clip-path="url(#clip890)" style="stroke:#000000; stroke-linecap:round; stroke-linejoin:round; stroke-width:4; stroke-opacity:1; fill:none" points="691.55,1423.18 691.55,1404.28 "/>
<polyline clip-path="url(#clip890)" style="stroke:#000000; stroke-linecap:round; stroke-linejoin:round; stroke-width:4; stroke-opacity:1; fill:none" points="1225.01,1423.18 1225.01,1404.28 "/>
<polyline clip-path="url(#clip890)" style="stroke:#000000; stroke-linecap:round; stroke-linejoin:round; stroke-width:4; stroke-opacity:1; fill:none" points="1758.48,1423.18 1758.48,1404.28 "/>
<polyline clip-path="url(#clip890)" style="stroke:#000000; stroke-linecap:round; stroke-linejoin:round; stroke-width:4; stroke-opacity:1; fill:none" points="2291.94,1423.18 2291.94,1404.28 "/>
<path clip-path="url(#clip890)" d="M681.827 1451.02 L700.184 1451.02 L700.184 1454.96 L686.11 1454.96 L686.11 1463.43 Q687.128 1463.08 688.147 1462.92 Q689.165 1462.73 690.184 1462.73 Q695.971 1462.73 699.35 1465.9 Q702.73 1469.08 702.73 1474.49 Q702.73 1480.07 699.258 1483.17 Q695.786 1486.25 689.466 1486.25 Q687.29 1486.25 685.022 1485.88 Q682.776 1485.51 680.369 1484.77 L680.369 1480.07 Q682.452 1481.2 684.675 1481.76 Q686.897 1482.32 689.374 1482.32 Q693.378 1482.32 695.716 1480.21 Q698.054 1478.1 698.054 1474.49 Q698.054 1470.88 695.716 1468.77 Q693.378 1466.67 689.374 1466.67 Q687.499 1466.67 685.624 1467.08 Q683.772 1467.5 681.827 1468.38 L681.827 1451.02 Z" fill="#000000" fill-rule="evenodd" fill-opacity="1" /><path clip-path="url(#clip890)" d="M1199.7 1481.64 L1207.34 1481.64 L1207.34 1455.28 L1199.03 1456.95 L1199.03 1452.69 L1207.29 1451.02 L1211.97 1451.02 L1211.97 1481.64 L1219.61 1481.64 L1219.61 1485.58 L1199.7 1485.58 L1199.7 1481.64 Z" fill="#000000" fill-rule="evenodd" fill-opacity="1" /><path clip-path="url(#clip890)" d="M1239.05 1454.1 Q1235.44 1454.1 1233.61 1457.66 Q1231.81 1461.2 1231.81 1468.33 Q1231.81 1475.44 1233.61 1479.01 Q1235.44 1482.55 1239.05 1482.55 Q1242.69 1482.55 1244.49 1479.01 Q1246.32 1475.44 1246.32 1468.33 Q1246.32 1461.2 1244.49 1457.66 Q1242.69 1454.1 1239.05 1454.1 M1239.05 1450.39 Q1244.86 1450.39 1247.92 1455 Q1251 1459.58 1251 1468.33 Q1251 1477.06 1247.92 1481.67 Q1244.86 1486.25 1239.05 1486.25 Q1233.24 1486.25 1230.16 1481.67 Q1227.11 1477.06 1227.11 1468.33 Q1227.11 1459.58 1230.16 1455 Q1233.24 1450.39 1239.05 1450.39 Z" fill="#000000" fill-rule="evenodd" fill-opacity="1" /><path clip-path="url(#clip890)" d="M1733.66 1481.64 L1741.3 1481.64 L1741.3 1455.28 L1732.99 1456.95 L1732.99 1452.69 L1741.26 1451.02 L1745.93 1451.02 L1745.93 1481.64 L1753.57 1481.64 L1753.57 1485.58 L1733.66 1485.58 L1733.66 1481.64 Z" fill="#000000" fill-rule="evenodd" fill-opacity="1" /><path clip-path="url(#clip890)" d="M1763.06 1451.02 L1781.42 1451.02 L1781.42 1454.96 L1767.34 1454.96 L1767.34 1463.43 Q1768.36 1463.08 1769.38 1462.92 Q1770.4 1462.73 1771.42 1462.73 Q1777.2 1462.73 1780.58 1465.9 Q1783.96 1469.08 1783.96 1474.49 Q1783.96 1480.07 1780.49 1483.17 Q1777.02 1486.25 1770.7 1486.25 Q1768.52 1486.25 1766.25 1485.88 Q1764.01 1485.51 1761.6 1484.77 L1761.6 1480.07 Q1763.69 1481.2 1765.91 1481.76 Q1768.13 1482.32 1770.61 1482.32 Q1774.61 1482.32 1776.95 1480.21 Q1779.29 1478.1 1779.29 1474.49 Q1779.29 1470.88 1776.95 1468.77 Q1774.61 1466.67 1770.61 1466.67 Q1768.73 1466.67 1766.86 1467.08 Q1765 1467.5 1763.06 1468.38 L1763.06 1451.02 Z" fill="#000000" fill-rule="evenodd" fill-opacity="1" /><path clip-path="url(#clip890)" d="M2270.71 1481.64 L2287.03 1481.64 L2287.03 1485.58 L2265.09 1485.58 L2265.09 1481.64 Q2267.75 1478.89 2272.33 1474.26 Q2276.94 1469.61 2278.12 1468.27 Q2280.37 1465.74 2281.25 1464.01 Q2282.15 1462.25 2282.15 1460.56 Q2282.15 1457.8 2280.2 1456.07 Q2278.28 1454.33 2275.18 1454.33 Q2272.98 1454.33 2270.53 1455.09 Q2268.1 1455.86 2265.32 1457.41 L2265.32 1452.69 Q2268.14 1451.55 2270.6 1450.97 Q2273.05 1450.39 2275.09 1450.39 Q2280.46 1450.39 2283.65 1453.08 Q2286.85 1455.77 2286.85 1460.26 Q2286.85 1462.39 2286.04 1464.31 Q2285.25 1466.2 2283.14 1468.8 Q2282.57 1469.47 2279.46 1472.69 Q2276.36 1475.88 2270.71 1481.64 Z" fill="#000000" fill-rule="evenodd" fill-opacity="1" /><path clip-path="url(#clip890)" d="M2306.85 1454.1 Q2303.24 1454.1 2301.41 1457.66 Q2299.6 1461.2 2299.6 1468.33 Q2299.6 1475.44 2301.41 1479.01 Q2303.24 1482.55 2306.85 1482.55 Q2310.48 1482.55 2312.29 1479.01 Q2314.12 1475.44 2314.12 1468.33 Q2314.12 1461.2 2312.29 1457.66 Q2310.48 1454.1 2306.85 1454.1 M2306.85 1450.39 Q2312.66 1450.39 2315.71 1455 Q2318.79 1459.58 2318.79 1468.33 Q2318.79 1477.06 2315.71 1481.67 Q2312.66 1486.25 2306.85 1486.25 Q2301.04 1486.25 2297.96 1481.67 Q2294.9 1477.06 2294.9 1468.33 Q2294.9 1459.58 2297.96 1455 Q2301.04 1450.39 2306.85 1450.39 Z" fill="#000000" fill-rule="evenodd" fill-opacity="1" /><path clip-path="url(#clip890)" d="M1193.9 1520.52 L1200.81 1520.52 L1213.99 1540.07 L1227.07 1520.52 L1233.97 1520.52 L1217.17 1545.41 L1217.17 1568.04 L1210.71 1568.04 L1210.71 1545.41 L1193.9 1520.52 Z" fill="#000000" fill-rule="evenodd" fill-opacity="1" /><path clip-path="url(#clip890)" d="M1261.82 1548.76 L1261.82 1551.62 L1234.9 1551.62 Q1235.28 1557.67 1238.53 1560.85 Q1241.8 1564 1247.63 1564 Q1251 1564 1254.15 1563.17 Q1257.34 1562.35 1260.46 1560.69 L1260.46 1566.23 Q1257.31 1567.57 1253.99 1568.27 Q1250.68 1568.97 1247.28 1568.97 Q1238.75 1568.97 1233.75 1564 Q1228.79 1559.04 1228.79 1550.57 Q1228.79 1541.82 1233.5 1536.69 Q1238.24 1531.54 1246.26 1531.54 Q1253.45 1531.54 1257.62 1536.18 Q1261.82 1540.8 1261.82 1548.76 M1255.97 1547.04 Q1255.9 1542.23 1253.26 1539.37 Q1250.65 1536.5 1246.32 1536.5 Q1241.42 1536.5 1238.46 1539.27 Q1235.53 1542.04 1235.09 1547.07 L1255.97 1547.04 Z" fill="#000000" fill-rule="evenodd" fill-opacity="1" /><path clip-path="url(#clip890)" d="M1287.64 1550.12 Q1280.54 1550.12 1277.8 1551.75 Q1275.07 1553.37 1275.07 1557.29 Q1275.07 1560.4 1277.1 1562.25 Q1279.17 1564.07 1282.7 1564.07 Q1287.57 1564.07 1290.5 1560.63 Q1293.46 1557.16 1293.46 1551.43 L1293.46 1550.12 L1287.64 1550.12 M1299.32 1547.71 L1299.32 1568.04 L1293.46 1568.04 L1293.46 1562.63 Q1291.46 1565.88 1288.47 1567.44 Q1285.47 1568.97 1281.14 1568.97 Q1275.67 1568.97 1272.42 1565.91 Q1269.21 1562.82 1269.21 1557.67 Q1269.21 1551.65 1273.22 1548.6 Q1277.26 1545.54 1285.25 1545.54 L1293.46 1545.54 L1293.46 1544.97 Q1293.46 1540.93 1290.79 1538.73 Q1288.15 1536.5 1283.34 1536.5 Q1280.29 1536.5 1277.39 1537.23 Q1274.49 1537.97 1271.82 1539.43 L1271.82 1534.02 Q1275.03 1532.78 1278.06 1532.17 Q1281.08 1531.54 1283.95 1531.54 Q1291.68 1531.54 1295.5 1535.55 Q1299.32 1539.56 1299.32 1547.71 Z" fill="#000000" fill-rule="evenodd" fill-opacity="1" /><path clip-path="url(#clip890)" d="M1332.04 1537.87 Q1331.05 1537.3 1329.87 1537.04 Q1328.73 1536.76 1327.33 1536.76 Q1322.36 1536.76 1319.69 1540 Q1317.05 1543.22 1317.05 1549.27 L1317.05 1568.04 L1311.16 1568.04 L1311.16 1532.4 L1317.05 1532.4 L1317.05 1537.93 Q1318.89 1534.69 1321.85 1533.13 Q1324.81 1531.54 1329.05 1531.54 Q1329.65 1531.54 1330.38 1531.63 Q1331.12 1531.7 1332.01 1531.85 L1332.04 1537.87 Z" fill="#000000" fill-rule="evenodd" fill-opacity="1" /><path clip-path="url(#clip890)" d="M1360.91 1533.45 L1360.91 1538.98 Q1358.42 1537.71 1355.75 1537.07 Q1353.08 1536.44 1350.21 1536.44 Q1345.85 1536.44 1343.66 1537.77 Q1341.49 1539.11 1341.49 1541.79 Q1341.49 1543.82 1343.05 1545 Q1344.61 1546.15 1349.32 1547.2 L1351.33 1547.64 Q1357.57 1548.98 1360.17 1551.43 Q1362.82 1553.85 1362.82 1558.21 Q1362.82 1563.17 1358.87 1566.07 Q1354.96 1568.97 1348.08 1568.97 Q1345.22 1568.97 1342.1 1568.39 Q1339.01 1567.85 1335.57 1566.74 L1335.57 1560.69 Q1338.82 1562.38 1341.97 1563.24 Q1345.12 1564.07 1348.21 1564.07 Q1352.35 1564.07 1354.57 1562.66 Q1356.8 1561.23 1356.8 1558.65 Q1356.8 1556.27 1355.18 1554.99 Q1353.59 1553.72 1348.14 1552.54 L1346.11 1552.07 Q1340.66 1550.92 1338.25 1548.56 Q1335.83 1546.18 1335.83 1542.04 Q1335.83 1537.01 1339.39 1534.27 Q1342.96 1531.54 1349.51 1531.54 Q1352.76 1531.54 1355.62 1532.01 Q1358.49 1532.49 1360.91 1533.45 Z" fill="#000000" fill-rule="evenodd" fill-opacity="1" /><polyline clip-path="url(#clip892)" style="stroke:#000000; stroke-linecap:round; stroke-linejoin:round; stroke-width:2; stroke-opacity:0.1; fill:none" points="203.964,1413.34 2352.76,1413.34 "/>
<polyline clip-path="url(#clip892)" style="stroke:#000000; stroke-linecap:round; stroke-linejoin:round; stroke-width:2; stroke-opacity:0.1; fill:none" points="203.964,1060.67 2352.76,1060.67 "/>
<polyline clip-path="url(#clip892)" style="stroke:#000000; stroke-linecap:round; stroke-linejoin:round; stroke-width:2; stroke-opacity:0.1; fill:none" points="203.964,707.995 2352.76,707.995 "/>
<polyline clip-path="url(#clip892)" style="stroke:#000000; stroke-linecap:round; stroke-linejoin:round; stroke-width:2; stroke-opacity:0.1; fill:none" points="203.964,355.322 2352.76,355.322 "/>
<polyline clip-path="url(#clip890)" style="stroke:#000000; stroke-linecap:round; stroke-linejoin:round; stroke-width:4; stroke-opacity:1; fill:none" points="203.964,1423.18 203.964,123.472 "/>
<polyline clip-path="url(#clip890)" style="stroke:#000000; stroke-linecap:round; stroke-linejoin:round; stroke-width:4; stroke-opacity:1; fill:none" points="203.964,1413.34 222.861,1413.34 "/>
<polyline clip-path="url(#clip890)" style="stroke:#000000; stroke-linecap:round; stroke-linejoin:round; stroke-width:4; stroke-opacity:1; fill:none" points="203.964,1060.67 222.861,1060.67 "/>
<polyline clip-path="url(#clip890)" style="stroke:#000000; stroke-linecap:round; stroke-linejoin:round; stroke-width:4; stroke-opacity:1; fill:none" points="203.964,707.995 222.861,707.995 "/>
<polyline clip-path="url(#clip890)" style="stroke:#000000; stroke-linecap:round; stroke-linejoin:round; stroke-width:4; stroke-opacity:1; fill:none" points="203.964,355.322 222.861,355.322 "/>
<path clip-path="url(#clip890)" d="M156.019 1399.14 Q152.408 1399.14 150.579 1402.7 Q148.774 1406.25 148.774 1413.38 Q148.774 1420.48 150.579 1424.05 Q152.408 1427.59 156.019 1427.59 Q159.653 1427.59 161.459 1424.05 Q163.288 1420.48 163.288 1413.38 Q163.288 1406.25 161.459 1402.7 Q159.653 1399.14 156.019 1399.14 M156.019 1395.44 Q161.829 1395.44 164.885 1400.04 Q167.964 1404.63 167.964 1413.38 Q167.964 1422.1 164.885 1426.71 Q161.829 1431.29 156.019 1431.29 Q150.209 1431.29 147.13 1426.71 Q144.075 1422.1 144.075 1413.38 Q144.075 1404.63 147.13 1400.04 Q150.209 1395.44 156.019 1395.44 Z" fill="#000000" fill-rule="evenodd" fill-opacity="1" /><path clip-path="url(#clip890)" d="M116.668 1074.01 L124.306 1074.01 L124.306 1047.65 L115.996 1049.31 L115.996 1045.05 L124.26 1043.39 L128.936 1043.39 L128.936 1074.01 L136.575 1074.01 L136.575 1077.95 L116.668 1077.95 L116.668 1074.01 Z" fill="#000000" fill-rule="evenodd" fill-opacity="1" /><path clip-path="url(#clip890)" d="M156.019 1046.47 Q152.408 1046.47 150.579 1050.03 Q148.774 1053.57 148.774 1060.7 Q148.774 1067.81 150.579 1071.37 Q152.408 1074.92 156.019 1074.92 Q159.653 1074.92 161.459 1071.37 Q163.288 1067.81 163.288 1060.7 Q163.288 1053.57 161.459 1050.03 Q159.653 1046.47 156.019 1046.47 M156.019 1042.76 Q161.829 1042.76 164.885 1047.37 Q167.964 1051.95 167.964 1060.7 Q167.964 1069.43 164.885 1074.04 Q161.829 1078.62 156.019 1078.62 Q150.209 1078.62 147.13 1074.04 Q144.075 1069.43 144.075 1060.7 Q144.075 1051.95 147.13 1047.37 Q150.209 1042.76 156.019 1042.76 Z" fill="#000000" fill-rule="evenodd" fill-opacity="1" /><path clip-path="url(#clip890)" d="M119.885 721.34 L136.204 721.34 L136.204 725.275 L114.26 725.275 L114.26 721.34 Q116.922 718.585 121.505 713.956 Q126.112 709.303 127.292 707.96 Q129.538 705.437 130.417 703.701 Q131.32 701.942 131.32 700.252 Q131.32 697.497 129.376 695.761 Q127.455 694.025 124.353 694.025 Q122.154 694.025 119.7 694.789 Q117.269 695.553 114.492 697.104 L114.492 692.382 Q117.316 691.247 119.769 690.669 Q122.223 690.09 124.26 690.09 Q129.63 690.09 132.825 692.775 Q136.019 695.46 136.019 699.951 Q136.019 702.081 135.209 704.002 Q134.422 705.9 132.316 708.493 Q131.737 709.164 128.635 712.381 Q125.533 715.576 119.885 721.34 Z" fill="#000000" fill-rule="evenodd" fill-opacity="1" /><path clip-path="url(#clip890)" d="M156.019 693.794 Q152.408 693.794 150.579 697.358 Q148.774 700.9 148.774 708.03 Q148.774 715.136 150.579 718.701 Q152.408 722.243 156.019 722.243 Q159.653 722.243 161.459 718.701 Q163.288 715.136 163.288 708.03 Q163.288 700.9 161.459 697.358 Q159.653 693.794 156.019 693.794 M156.019 690.09 Q161.829 690.09 164.885 694.696 Q167.964 699.28 167.964 708.03 Q167.964 716.756 164.885 721.363 Q161.829 725.946 156.019 725.946 Q150.209 725.946 147.13 721.363 Q144.075 716.756 144.075 708.03 Q144.075 699.28 147.13 694.696 Q150.209 690.09 156.019 690.09 Z" fill="#000000" fill-rule="evenodd" fill-opacity="1" /><path clip-path="url(#clip890)" d="M130.024 353.968 Q133.38 354.686 135.255 356.954 Q137.154 359.223 137.154 362.556 Q137.154 367.672 133.635 370.473 Q130.117 373.273 123.635 373.273 Q121.459 373.273 119.144 372.834 Q116.853 372.417 114.399 371.561 L114.399 367.047 Q116.343 368.181 118.658 368.76 Q120.973 369.338 123.496 369.338 Q127.894 369.338 130.186 367.602 Q132.501 365.866 132.501 362.556 Q132.501 359.5 130.348 357.787 Q128.218 356.051 124.399 356.051 L120.371 356.051 L120.371 352.209 L124.584 352.209 Q128.033 352.209 129.862 350.843 Q131.691 349.454 131.691 346.862 Q131.691 344.2 129.792 342.788 Q127.917 341.352 124.399 341.352 Q122.478 341.352 120.279 341.769 Q118.08 342.186 115.441 343.065 L115.441 338.899 Q118.103 338.158 120.418 337.788 Q122.755 337.417 124.816 337.417 Q130.14 337.417 133.242 339.848 Q136.343 342.255 136.343 346.375 Q136.343 349.246 134.7 351.237 Q133.056 353.204 130.024 353.968 Z" fill="#000000" fill-rule="evenodd" fill-opacity="1" /><path clip-path="url(#clip890)" d="M156.019 341.121 Q152.408 341.121 150.579 344.686 Q148.774 348.227 148.774 355.357 Q148.774 362.463 150.579 366.028 Q152.408 369.57 156.019 369.57 Q159.653 369.57 161.459 366.028 Q163.288 362.463 163.288 355.357 Q163.288 348.227 161.459 344.686 Q159.653 341.121 156.019 341.121 M156.019 337.417 Q161.829 337.417 164.885 342.024 Q167.964 346.607 167.964 355.357 Q167.964 364.084 164.885 368.69 Q161.829 373.273 156.019 373.273 Q150.209 373.273 147.13 368.69 Q144.075 364.084 144.075 355.357 Q144.075 346.607 147.13 342.024 Q150.209 337.417 156.019 337.417 Z" fill="#000000" fill-rule="evenodd" fill-opacity="1" /><path clip-path="url(#clip890)" d="M16.4842 1287.18 L16.4842 1278.52 L56.238 1257.45 L16.4842 1257.45 L16.4842 1251.22 L64.0042 1251.22 L64.0042 1259.87 L24.2503 1280.94 L64.0042 1280.94 L64.0042 1287.18 L16.4842 1287.18 Z" fill="#000000" fill-rule="evenodd" fill-opacity="1" /><path clip-path="url(#clip890)" d="M32.4621 1224.86 Q32.4621 1229.57 36.1542 1232.31 Q39.8145 1235.05 46.212 1235.05 Q52.6095 1235.05 56.3017 1232.34 Q59.9619 1229.6 59.9619 1224.86 Q59.9619 1220.18 56.2698 1217.45 Q52.5777 1214.71 46.212 1214.71 Q39.8781 1214.71 36.186 1217.45 Q32.4621 1220.18 32.4621 1224.86 M27.4968 1224.86 Q27.4968 1217.22 32.4621 1212.86 Q37.4273 1208.5 46.212 1208.5 Q54.9649 1208.5 59.9619 1212.86 Q64.9272 1217.22 64.9272 1224.86 Q64.9272 1232.53 59.9619 1236.89 Q54.9649 1241.22 46.212 1241.22 Q37.4273 1241.22 32.4621 1236.89 Q27.4968 1232.53 27.4968 1224.86 Z" fill="#000000" fill-rule="evenodd" fill-opacity="1" /><path clip-path="url(#clip890)" d="M22.818 1182.66 L46.4666 1191.38 L46.4666 1173.9 L22.818 1182.66 M16.4842 1186.29 L16.4842 1179 L64.0042 1160.89 L64.0042 1167.57 L51.8138 1171.9 L51.8138 1193.32 L64.0042 1197.65 L64.0042 1204.43 L16.4842 1186.29 Z" fill="#000000" fill-rule="evenodd" fill-opacity="1" /><path clip-path="url(#clip890)" d="M33.7671 1131.89 L14.479 1131.89 L14.479 1126.03 L64.0042 1126.03 L64.0042 1131.89 L58.657 1131.89 Q61.8398 1133.74 63.3994 1136.57 Q64.9272 1139.37 64.9272 1143.32 Q64.9272 1149.78 59.771 1153.85 Q54.6147 1157.89 46.212 1157.89 Q37.8093 1157.89 32.6531 1153.85 Q27.4968 1149.78 27.4968 1143.32 Q27.4968 1139.37 29.0564 1136.57 Q30.5842 1133.74 33.7671 1131.89 M46.212 1151.85 Q52.6732 1151.85 56.3653 1149.21 Q60.0256 1146.53 60.0256 1141.88 Q60.0256 1137.24 56.3653 1134.56 Q52.6732 1131.89 46.212 1131.89 Q39.7508 1131.89 36.0905 1134.56 Q32.3984 1137.24 32.3984 1141.88 Q32.3984 1146.53 36.0905 1149.21 Q39.7508 1151.85 46.212 1151.85 Z" fill="#000000" fill-rule="evenodd" fill-opacity="1" /><path clip-path="url(#clip890)" d="M46.0847 1097.77 Q46.0847 1104.87 47.7079 1107.61 Q49.3312 1110.34 53.2461 1110.34 Q56.3653 1110.34 58.2114 1108.31 Q60.0256 1106.24 60.0256 1102.7 Q60.0256 1097.83 56.5881 1094.91 Q53.1188 1091.95 47.3897 1091.95 L46.0847 1091.95 L46.0847 1097.77 M43.6657 1086.09 L64.0042 1086.09 L64.0042 1091.95 L58.5933 1091.95 Q61.8398 1093.95 63.3994 1096.94 Q64.9272 1099.93 64.9272 1104.26 Q64.9272 1109.74 61.8716 1112.98 Q58.7843 1116.2 53.6281 1116.2 Q47.6125 1116.2 44.5569 1112.19 Q41.5014 1108.15 41.5014 1100.16 L41.5014 1091.95 L40.9285 1091.95 Q36.8862 1091.95 34.6901 1094.62 Q32.4621 1097.26 32.4621 1102.07 Q32.4621 1105.12 33.1941 1108.02 Q33.9262 1110.92 35.3903 1113.59 L29.9795 1113.59 Q28.7381 1110.37 28.1334 1107.35 Q27.4968 1104.33 27.4968 1101.46 Q27.4968 1093.73 31.5072 1089.91 Q35.5176 1086.09 43.6657 1086.09 Z" fill="#000000" fill-rule="evenodd" fill-opacity="1" /><path clip-path="url(#clip890)" d="M58.657 1068.36 L77.5631 1068.36 L77.5631 1074.25 L28.3562 1074.25 L28.3562 1068.36 L33.7671 1068.36 Q30.5842 1066.51 29.0564 1063.71 Q27.4968 1060.88 27.4968 1056.97 Q27.4968 1050.47 32.6531 1046.43 Q37.8093 1042.36 46.212 1042.36 Q54.6147 1042.36 59.771 1046.43 Q64.9272 1050.47 64.9272 1056.97 Q64.9272 1060.88 63.3994 1063.71 Q61.8398 1066.51 58.657 1068.36 M46.212 1048.44 Q39.7508 1048.44 36.0905 1051.11 Q32.3984 1053.75 32.3984 1058.4 Q32.3984 1063.05 36.0905 1065.72 Q39.7508 1068.36 46.212 1068.36 Q52.6732 1068.36 56.3653 1065.72 Q60.0256 1063.05 60.0256 1058.4 Q60.0256 1053.75 56.3653 1051.11 Q52.6732 1048.44 46.212 1048.44 Z" fill="#000000" fill-rule="evenodd" fill-opacity="1" /><path clip-path="url(#clip890)" d="M18.2347 1026.86 L28.3562 1026.86 L28.3562 1014.79 L32.9077 1014.79 L32.9077 1026.86 L52.2594 1026.86 Q56.6199 1026.86 57.8613 1025.68 Q59.1026 1024.47 59.1026 1020.81 L59.1026 1014.79 L64.0042 1014.79 L64.0042 1020.81 Q64.0042 1027.59 61.4897 1030.17 Q58.9434 1032.74 52.2594 1032.74 L32.9077 1032.74 L32.9077 1037.04 L28.3562 1037.04 L28.3562 1032.74 L18.2347 1032.74 L18.2347 1026.86 Z" fill="#000000" fill-rule="evenodd" fill-opacity="1" /><path clip-path="url(#clip890)" d="M20.1444 971.252 L26.9239 971.252 Q23.9002 974.498 22.4043 978.19 Q20.9083 981.851 20.9083 985.988 Q20.9083 994.136 25.9054 998.465 Q30.8707 1002.79 40.2919 1002.79 Q49.6813 1002.79 54.6784 998.465 Q59.6436 994.136 59.6436 985.988 Q59.6436 981.851 58.1477 978.19 Q56.6518 974.498 53.6281 971.252 L60.3439 971.252 Q62.6355 974.626 63.7814 978.413 Q64.9272 982.169 64.9272 986.37 Q64.9272 997.16 58.3387 1003.37 Q51.7183 1009.57 40.2919 1009.57 Q28.8336 1009.57 22.2451 1003.37 Q15.6248 997.16 15.6248 986.37 Q15.6248 982.105 16.7706 978.349 Q17.8846 974.562 20.1444 971.252 Z" fill="#000000" fill-rule="evenodd" fill-opacity="1" /><path clip-path="url(#clip890)" d="M32.4621 947.762 Q32.4621 952.473 36.1542 955.21 Q39.8145 957.947 46.212 957.947 Q52.6095 957.947 56.3017 955.242 Q59.9619 952.505 59.9619 947.762 Q59.9619 943.083 56.2698 940.346 Q52.5777 937.609 46.212 937.609 Q39.8781 937.609 36.186 940.346 Q32.4621 943.083 32.4621 947.762 M27.4968 947.762 Q27.4968 940.123 32.4621 935.763 Q37.4273 931.402 46.212 931.402 Q54.9649 931.402 59.9619 935.763 Q64.9272 940.123 64.9272 947.762 Q64.9272 955.433 59.9619 959.793 Q54.9649 964.122 46.212 964.122 Q37.4273 964.122 32.4621 959.793 Q27.4968 955.433 27.4968 947.762 Z" fill="#000000" fill-rule="evenodd" fill-opacity="1" /><path clip-path="url(#clip890)" d="M29.4065 898.969 L34.9447 898.969 Q33.6716 901.452 33.035 904.125 Q32.3984 906.799 32.3984 909.664 Q32.3984 914.024 33.7352 916.22 Q35.072 918.385 37.7456 918.385 Q39.7826 918.385 40.9603 916.825 Q42.1061 915.265 43.1565 910.555 L43.6021 908.55 Q44.9389 902.311 47.3897 899.701 Q49.8086 897.059 54.1691 897.059 Q59.1344 897.059 62.0308 901.006 Q64.9272 904.921 64.9272 911.796 Q64.9272 914.661 64.3543 917.78 Q63.8132 920.867 62.6992 924.305 L56.6518 924.305 Q58.3387 921.058 59.198 917.907 Q60.0256 914.756 60.0256 911.669 Q60.0256 907.531 58.6251 905.303 Q57.1929 903.075 54.6147 903.075 Q52.2276 903.075 50.9545 904.698 Q49.6813 906.29 48.5037 911.732 L48.0262 913.769 Q46.8804 919.212 44.5251 921.631 Q42.138 924.05 38.0002 924.05 Q32.9713 924.05 30.2341 920.485 Q27.4968 916.92 27.4968 910.364 Q27.4968 907.117 27.9743 904.253 Q28.4517 901.388 29.4065 898.969 Z" fill="#000000" fill-rule="evenodd" fill-opacity="1" /><path clip-path="url(#clip890)" d="M18.2347 881.941 L28.3562 881.941 L28.3562 869.878 L32.9077 869.878 L32.9077 881.941 L52.2594 881.941 Q56.6199 881.941 57.8613 880.763 Q59.1026 879.554 59.1026 875.893 L59.1026 869.878 L64.0042 869.878 L64.0042 875.893 Q64.0042 882.673 61.4897 885.251 Q58.9434 887.829 52.2594 887.829 L32.9077 887.829 L32.9077 892.126 L28.3562 892.126 L28.3562 887.829 L18.2347 887.829 L18.2347 881.941 Z" fill="#000000" fill-rule="evenodd" fill-opacity="1" /><path clip-path="url(#clip890)" d="M14.5426 848.107 Q21.8632 852.372 29.0246 854.441 Q36.186 856.51 43.5384 856.51 Q50.8908 856.51 58.1159 854.441 Q65.3091 852.34 72.5979 848.107 L72.5979 853.2 Q65.1182 857.974 57.8931 860.361 Q50.668 862.716 43.5384 862.716 Q36.4406 862.716 29.2474 860.361 Q22.0542 858.006 14.5426 853.2 L14.5426 848.107 Z" fill="#000000" fill-rule="evenodd" fill-opacity="1" /><path clip-path="url(#clip890)" d="M41.3104 830.06 L58.7206 830.06 L58.7206 819.748 Q58.7206 814.56 56.5881 812.077 Q54.4238 809.563 49.9996 809.563 Q45.5436 809.563 43.4429 812.077 Q41.3104 814.56 41.3104 819.748 L41.3104 830.06 M21.7677 830.06 L36.0905 830.06 L36.0905 820.544 Q36.0905 815.833 34.34 813.541 Q32.5576 811.218 28.9291 811.218 Q25.3325 811.218 23.5501 813.541 Q21.7677 815.833 21.7677 820.544 L21.7677 830.06 M16.4842 836.49 L16.4842 820.066 Q16.4842 812.714 19.5397 808.735 Q22.5952 804.757 28.2289 804.757 Q32.5894 804.757 35.1675 806.794 Q37.7456 808.831 38.3822 812.777 Q39.4007 808.035 42.6472 805.425 Q45.8619 802.783 50.6998 802.783 Q57.0655 802.783 60.5348 807.112 Q64.0042 811.441 64.0042 819.43 L64.0042 836.49 L16.4842 836.49 Z" fill="#000000" fill-rule="evenodd" fill-opacity="1" /><path clip-path="url(#clip890)" d="M28.3562 792.025 L28.3562 786.169 L64.0042 786.169 L64.0042 792.025 L28.3562 792.025 M14.479 792.025 L14.479 786.169 L21.895 786.169 L21.895 792.025 L14.479 792.025 Z" fill="#000000" fill-rule="evenodd" fill-opacity="1" /><path clip-path="url(#clip890)" d="M14.479 773.915 L14.479 768.058 L64.0042 768.058 L64.0042 773.915 L14.479 773.915 Z" fill="#000000" fill-rule="evenodd" fill-opacity="1" /><path clip-path="url(#clip890)" d="M14.479 755.804 L14.479 749.948 L64.0042 749.948 L64.0042 755.804 L14.479 755.804 Z" fill="#000000" fill-rule="evenodd" fill-opacity="1" /><path clip-path="url(#clip890)" d="M28.3562 737.694 L28.3562 731.837 L64.0042 731.837 L64.0042 737.694 L28.3562 737.694 M14.479 737.694 L14.479 731.837 L21.895 731.837 L21.895 737.694 L14.479 737.694 Z" fill="#000000" fill-rule="evenodd" fill-opacity="1" /><path clip-path="url(#clip890)" d="M32.4621 705.77 Q32.4621 710.481 36.1542 713.218 Q39.8145 715.955 46.212 715.955 Q52.6095 715.955 56.3017 713.25 Q59.9619 710.512 59.9619 705.77 Q59.9619 701.091 56.2698 698.354 Q52.5777 695.617 46.212 695.617 Q39.8781 695.617 36.186 698.354 Q32.4621 701.091 32.4621 705.77 M27.4968 705.77 Q27.4968 698.131 32.4621 693.771 Q37.4273 689.41 46.212 689.41 Q54.9649 689.41 59.9619 693.771 Q64.9272 698.131 64.9272 705.77 Q64.9272 713.441 59.9619 717.801 Q54.9649 722.13 46.212 722.13 Q37.4273 722.13 32.4621 717.801 Q27.4968 713.441 27.4968 705.77 Z" fill="#000000" fill-rule="evenodd" fill-opacity="1" /><path clip-path="url(#clip890)" d="M42.4881 650.07 L64.0042 650.07 L64.0042 655.926 L42.679 655.926 Q37.6183 655.926 35.1038 657.9 Q32.5894 659.873 32.5894 663.82 Q32.5894 668.562 35.6131 671.3 Q38.6368 674.037 43.8567 674.037 L64.0042 674.037 L64.0042 679.925 L28.3562 679.925 L28.3562 674.037 L33.8944 674.037 Q30.6797 671.936 29.0883 669.103 Q27.4968 666.239 27.4968 662.515 Q27.4968 656.372 31.3163 653.221 Q35.1038 650.07 42.4881 650.07 Z" fill="#000000" fill-rule="evenodd" fill-opacity="1" /><path clip-path="url(#clip890)" d="M29.4065 615.663 L34.9447 615.663 Q33.6716 618.146 33.035 620.82 Q32.3984 623.493 32.3984 626.358 Q32.3984 630.718 33.7352 632.914 Q35.072 635.079 37.7456 635.079 Q39.7826 635.079 40.9603 633.519 Q42.1061 631.96 43.1565 627.249 L43.6021 625.244 Q44.9389 619.005 47.3897 616.395 Q49.8086 613.754 54.1691 613.754 Q59.1344 613.754 62.0308 617.7 Q64.9272 621.615 64.9272 628.49 Q64.9272 631.355 64.3543 634.474 Q63.8132 637.561 62.6992 640.999 L56.6518 640.999 Q58.3387 637.752 59.198 634.601 Q60.0256 631.45 60.0256 628.363 Q60.0256 624.225 58.6251 621.997 Q57.1929 619.769 54.6147 619.769 Q52.2276 619.769 50.9545 621.392 Q49.6813 622.984 48.5037 628.427 L48.0262 630.464 Q46.8804 635.906 44.5251 638.325 Q42.138 640.744 38.0002 640.744 Q32.9713 640.744 30.2341 637.179 Q27.4968 633.615 27.4968 627.058 Q27.4968 623.811 27.9743 620.947 Q28.4517 618.082 29.4065 615.663 Z" fill="#000000" fill-rule="evenodd" fill-opacity="1" /><path clip-path="url(#clip890)" d="M32.4621 569.894 Q32.4621 574.605 36.1542 577.342 Q39.8145 580.079 46.212 580.079 Q52.6095 580.079 56.3017 577.374 Q59.9619 574.636 59.9619 569.894 Q59.9619 565.215 56.2698 562.478 Q52.5777 559.741 46.212 559.741 Q39.8781 559.741 36.186 562.478 Q32.4621 565.215 32.4621 569.894 M27.4968 569.894 Q27.4968 562.255 32.4621 557.895 Q37.4273 553.534 46.212 553.534 Q54.9649 553.534 59.9619 557.895 Q64.9272 562.255 64.9272 569.894 Q64.9272 577.565 59.9619 581.925 Q54.9649 586.254 46.212 586.254 Q37.4273 586.254 32.4621 581.925 Q27.4968 577.565 27.4968 569.894 Z" fill="#000000" fill-rule="evenodd" fill-opacity="1" /><path clip-path="url(#clip890)" d="M14.479 525.78 L19.3487 525.78 L19.3487 531.381 Q19.3487 534.532 20.6219 535.774 Q21.895 536.983 25.2052 536.983 L28.3562 536.983 L28.3562 527.339 L32.9077 527.339 L32.9077 536.983 L64.0042 536.983 L64.0042 542.871 L32.9077 542.871 L32.9077 548.473 L28.3562 548.473 L28.3562 542.871 L25.8736 542.871 Q19.9216 542.871 17.2162 540.102 Q14.479 537.333 14.479 531.318 L14.479 525.78 Z" fill="#000000" fill-rule="evenodd" fill-opacity="1" /><path clip-path="url(#clip890)" d="M21.7677 493.474 L58.7206 493.474 L58.7206 485.707 Q58.7206 475.872 54.2646 471.321 Q49.8086 466.738 40.1964 466.738 Q30.6479 466.738 26.2237 471.321 Q21.7677 475.872 21.7677 485.707 L21.7677 493.474 M16.4842 499.903 L16.4842 486.694 Q16.4842 472.881 22.2451 466.419 Q27.9743 459.958 40.1964 459.958 Q52.4822 459.958 58.2432 466.451 Q64.0042 472.944 64.0042 486.694 L64.0042 499.903 L16.4842 499.903 Z" fill="#000000" fill-rule="evenodd" fill-opacity="1" /><path clip-path="url(#clip890)" d="M32.4621 436.15 Q32.4621 440.861 36.1542 443.598 Q39.8145 446.336 46.212 446.336 Q52.6095 446.336 56.3017 443.63 Q59.9619 440.893 59.9619 436.15 Q59.9619 431.472 56.2698 428.734 Q52.5777 425.997 46.212 425.997 Q39.8781 425.997 36.186 428.734 Q32.4621 431.472 32.4621 436.15 M27.4968 436.15 Q27.4968 428.512 32.4621 424.151 Q37.4273 419.791 46.212 419.791 Q54.9649 419.791 59.9619 424.151 Q64.9272 428.512 64.9272 436.15 Q64.9272 443.821 59.9619 448.182 Q54.9649 452.51 46.212 452.51 Q37.4273 452.51 32.4621 448.182 Q27.4968 443.821 27.4968 436.15 Z" fill="#000000" fill-rule="evenodd" fill-opacity="1" /><path clip-path="url(#clip890)" d="M14.479 410.083 L14.479 404.226 L64.0042 404.226 L64.0042 410.083 L14.479 410.083 Z" fill="#000000" fill-rule="evenodd" fill-opacity="1" /><path clip-path="url(#clip890)" d="M14.479 391.972 L14.479 386.116 L64.0042 386.116 L64.0042 391.972 L14.479 391.972 Z" fill="#000000" fill-rule="evenodd" fill-opacity="1" /><path clip-path="url(#clip890)" d="M46.0847 357.661 Q46.0847 364.759 47.7079 367.496 Q49.3312 370.234 53.2461 370.234 Q56.3653 370.234 58.2114 368.196 Q60.0256 366.128 60.0256 362.595 Q60.0256 357.725 56.5881 354.797 Q53.1188 351.837 47.3897 351.837 L46.0847 351.837 L46.0847 357.661 M43.6657 345.98 L64.0042 345.98 L64.0042 351.837 L58.5933 351.837 Q61.8398 353.842 63.3994 356.834 Q64.9272 359.826 64.9272 364.154 Q64.9272 369.629 61.8716 372.875 Q58.7843 376.09 53.6281 376.09 Q47.6125 376.09 44.5569 372.08 Q41.5014 368.037 41.5014 360.048 L41.5014 351.837 L40.9285 351.837 Q36.8862 351.837 34.6901 354.51 Q32.4621 357.152 32.4621 361.958 Q32.4621 365.014 33.1941 367.91 Q33.9262 370.806 35.3903 373.48 L29.9795 373.48 Q28.7381 370.265 28.1334 367.242 Q27.4968 364.218 27.4968 361.353 Q27.4968 353.619 31.5072 349.8 Q35.5176 345.98 43.6657 345.98 Z" fill="#000000" fill-rule="evenodd" fill-opacity="1" /><path clip-path="url(#clip890)" d="M33.8307 313.26 Q33.2578 314.247 33.0032 315.425 Q32.7167 316.571 32.7167 317.971 Q32.7167 322.936 35.9632 325.61 Q39.1779 328.252 45.2253 328.252 L64.0042 328.252 L64.0042 334.14 L28.3562 334.14 L28.3562 328.252 L33.8944 328.252 Q30.6479 326.406 29.0883 323.446 Q27.4968 320.486 27.4968 316.252 Q27.4968 315.648 27.5923 314.916 Q27.656 314.183 27.8151 313.292 L33.8307 313.26 Z" fill="#000000" fill-rule="evenodd" fill-opacity="1" /><path clip-path="url(#clip890)" d="M29.4065 284.392 L34.9447 284.392 Q33.6716 286.875 33.035 289.548 Q32.3984 292.222 32.3984 295.086 Q32.3984 299.447 33.7352 301.643 Q35.072 303.807 37.7456 303.807 Q39.7826 303.807 40.9603 302.248 Q42.1061 300.688 43.1565 295.978 L43.6021 293.972 Q44.9389 287.734 47.3897 285.124 Q49.8086 282.482 54.1691 282.482 Q59.1344 282.482 62.0308 286.429 Q64.9272 290.344 64.9272 297.219 Q64.9272 300.083 64.3543 303.203 Q63.8132 306.29 62.6992 309.727 L56.6518 309.727 Q58.3387 306.481 59.198 303.33 Q60.0256 300.179 60.0256 297.092 Q60.0256 292.954 58.6251 290.726 Q57.1929 288.498 54.6147 288.498 Q52.2276 288.498 50.9545 290.121 Q49.6813 291.713 48.5037 297.155 L48.0262 299.192 Q46.8804 304.635 44.5251 307.054 Q42.138 309.473 38.0002 309.473 Q32.9713 309.473 30.2341 305.908 Q27.4968 302.343 27.4968 295.787 Q27.4968 292.54 27.9743 289.676 Q28.4517 286.811 29.4065 284.392 Z" fill="#000000" fill-rule="evenodd" fill-opacity="1" /><path clip-path="url(#clip890)" d="M14.5426 274.08 L14.5426 268.987 Q22.0542 264.213 29.2474 261.857 Q36.4406 259.47 43.5384 259.47 Q50.668 259.47 57.8931 261.857 Q65.1182 264.213 72.5979 268.987 L72.5979 274.08 Q65.3091 269.846 58.1159 267.777 Q50.8908 265.677 43.5384 265.677 Q36.186 265.677 29.0246 267.777 Q21.8632 269.846 14.5426 274.08 Z" fill="#000000" fill-rule="evenodd" fill-opacity="1" /><path clip-path="url(#clip890)" d="M812.627 12.096 L823.646 12.096 L850.463 62.6918 L850.463 12.096 L858.402 12.096 L858.402 72.576 L847.384 72.576 L820.567 21.9802 L820.567 72.576 L812.627 72.576 L812.627 12.096 Z" fill="#000000" fill-rule="evenodd" fill-opacity="1" /><path clip-path="url(#clip890)" d="M891.944 32.4315 Q885.949 32.4315 882.465 37.1306 Q878.981 41.7891 878.981 49.9314 Q878.981 58.0738 882.424 62.7728 Q885.908 67.4314 891.944 67.4314 Q897.899 67.4314 901.383 62.7323 Q904.866 58.0333 904.866 49.9314 Q904.866 41.8701 901.383 37.1711 Q897.899 32.4315 891.944 32.4315 M891.944 26.1121 Q901.666 26.1121 907.216 32.4315 Q912.766 38.7509 912.766 49.9314 Q912.766 61.0714 907.216 67.4314 Q901.666 73.7508 891.944 73.7508 Q882.181 73.7508 876.632 67.4314 Q871.122 61.0714 871.122 49.9314 Q871.122 38.7509 876.632 32.4315 Q882.181 26.1121 891.944 26.1121 Z" fill="#000000" fill-rule="evenodd" fill-opacity="1" /><path clip-path="url(#clip890)" d="M945.659 20.1573 L934.559 50.2555 L956.799 50.2555 L945.659 20.1573 M941.041 12.096 L950.318 12.096 L973.367 72.576 L964.86 72.576 L959.351 57.061 L932.088 57.061 L926.579 72.576 L917.951 72.576 L941.041 12.096 Z" fill="#000000" fill-rule="evenodd" fill-opacity="1" /><path clip-path="url(#clip890)" d="M1010.27 34.0924 L1010.27 9.54393 L1017.72 9.54393 L1017.72 72.576 L1010.27 72.576 L1010.27 65.7705 Q1007.92 69.8214 1004.32 71.8063 Q1000.75 73.7508 995.728 73.7508 Q987.505 73.7508 982.32 67.1883 Q977.175 60.6258 977.175 49.9314 Q977.175 39.2371 982.32 32.6746 Q987.505 26.1121 995.728 26.1121 Q1000.75 26.1121 1004.32 28.0971 Q1007.92 30.0415 1010.27 34.0924 M984.872 49.9314 Q984.872 58.1548 988.234 62.8538 Q991.637 67.5124 997.551 67.5124 Q1003.47 67.5124 1006.87 62.8538 Q1010.27 58.1548 1010.27 49.9314 Q1010.27 41.7081 1006.87 37.0496 Q1003.47 32.3505 997.551 32.3505 Q991.637 32.3505 988.234 37.0496 Q984.872 41.7081 984.872 49.9314 Z" fill="#000000" fill-rule="evenodd" fill-opacity="1" /><path clip-path="url(#clip890)" d="M1053.7 49.7694 Q1044.66 49.7694 1041.18 51.8354 Q1037.7 53.9013 1037.7 58.8839 Q1037.7 62.8538 1040.29 65.2034 Q1042.92 67.5124 1047.42 67.5124 Q1053.62 67.5124 1057.34 63.1374 Q1061.11 58.7219 1061.11 51.4303 L1061.11 49.7694 L1053.7 49.7694 M1068.56 46.6907 L1068.56 72.576 L1061.11 72.576 L1061.11 65.6895 Q1058.56 69.8214 1054.75 71.8063 Q1050.94 73.7508 1045.43 73.7508 Q1038.47 73.7508 1034.33 69.8619 Q1030.24 65.9325 1030.24 59.3701 Q1030.24 51.7138 1035.35 47.825 Q1040.49 43.9361 1050.66 43.9361 L1061.11 43.9361 L1061.11 43.2069 Q1061.11 38.0623 1057.71 35.2672 Q1054.34 32.4315 1048.23 32.4315 Q1044.34 32.4315 1040.65 33.3632 Q1036.97 34.295 1033.56 36.1584 L1033.56 29.2718 Q1037.66 27.692 1041.5 26.9223 Q1045.35 26.1121 1049 26.1121 Q1058.84 26.1121 1063.7 31.2163 Q1068.56 36.3204 1068.56 46.6907 Z" fill="#000000" fill-rule="evenodd" fill-opacity="1" /><path clip-path="url(#clip890)" d="M1091.13 65.7705 L1091.13 89.8329 L1083.63 89.8329 L1083.63 27.2059 L1091.13 27.2059 L1091.13 34.0924 Q1093.48 30.0415 1097.04 28.0971 Q1100.65 26.1121 1105.63 26.1121 Q1113.89 26.1121 1119.04 32.6746 Q1124.22 39.2371 1124.22 49.9314 Q1124.22 60.6258 1119.04 67.1883 Q1113.89 73.7508 1105.63 73.7508 Q1100.65 73.7508 1097.04 71.8063 Q1093.48 69.8214 1091.13 65.7705 M1116.49 49.9314 Q1116.49 41.7081 1113.08 37.0496 Q1109.72 32.3505 1103.81 32.3505 Q1097.89 32.3505 1094.49 37.0496 Q1091.13 41.7081 1091.13 49.9314 Q1091.13 58.1548 1094.49 62.8538 Q1097.89 67.5124 1103.81 67.5124 Q1109.72 67.5124 1113.08 62.8538 Q1116.49 58.1548 1116.49 49.9314 Z" fill="#000000" fill-rule="evenodd" fill-opacity="1" /><path clip-path="url(#clip890)" d="M1143.95 14.324 L1143.95 27.2059 L1159.3 27.2059 L1159.3 32.9987 L1143.95 32.9987 L1143.95 57.6282 Q1143.95 63.1779 1145.45 64.7578 Q1146.99 66.3376 1151.65 66.3376 L1159.3 66.3376 L1159.3 72.576 L1151.65 72.576 Q1143.02 72.576 1139.74 69.3758 Q1136.46 66.1351 1136.46 57.6282 L1136.46 32.9987 L1130.99 32.9987 L1130.99 27.2059 L1136.46 27.2059 L1136.46 14.324 L1143.95 14.324 Z" fill="#000000" fill-rule="evenodd" fill-opacity="1" /><path clip-path="url(#clip890)" d="M1214.72 16.7545 L1214.72 25.383 Q1210.59 21.5346 1205.89 19.6307 Q1201.23 17.7268 1195.96 17.7268 Q1185.59 17.7268 1180.08 24.0867 Q1174.58 30.4061 1174.58 42.3968 Q1174.58 54.3469 1180.08 60.7069 Q1185.59 67.0263 1195.96 67.0263 Q1201.23 67.0263 1205.89 65.1223 Q1210.59 63.2184 1214.72 59.3701 L1214.72 67.9175 Q1210.43 70.8341 1205.61 72.2924 Q1200.83 73.7508 1195.48 73.7508 Q1181.75 73.7508 1173.85 65.3654 Q1165.95 56.9395 1165.95 42.3968 Q1165.95 27.8135 1173.85 19.4281 Q1181.75 11.0023 1195.48 11.0023 Q1200.91 11.0023 1205.69 12.4606 Q1210.51 13.8784 1214.72 16.7545 Z" fill="#000000" fill-rule="evenodd" fill-opacity="1" /><path clip-path="url(#clip890)" d="M1244.62 32.4315 Q1238.62 32.4315 1235.14 37.1306 Q1231.65 41.7891 1231.65 49.9314 Q1231.65 58.0738 1235.1 62.7728 Q1238.58 67.4314 1244.62 67.4314 Q1250.57 67.4314 1254.05 62.7323 Q1257.54 58.0333 1257.54 49.9314 Q1257.54 41.8701 1254.05 37.1711 Q1250.57 32.4315 1244.62 32.4315 M1244.62 26.1121 Q1254.34 26.1121 1259.89 32.4315 Q1265.44 38.7509 1265.44 49.9314 Q1265.44 61.0714 1259.89 67.4314 Q1254.34 73.7508 1244.62 73.7508 Q1234.85 73.7508 1229.3 67.4314 Q1223.79 61.0714 1223.79 49.9314 Q1223.79 38.7509 1229.3 32.4315 Q1234.85 26.1121 1244.62 26.1121 Z" fill="#000000" fill-rule="evenodd" fill-opacity="1" /><path clip-path="url(#clip890)" d="M1306.72 28.5427 L1306.72 35.5912 Q1303.56 33.9709 1300.15 33.1607 Q1296.75 32.3505 1293.11 32.3505 Q1287.56 32.3505 1284.76 34.0519 Q1282.01 35.7533 1282.01 39.156 Q1282.01 41.7486 1283.99 43.2475 Q1285.98 44.7058 1291.97 46.0426 L1294.52 46.6097 Q1302.46 48.3111 1305.78 51.4303 Q1309.15 54.509 1309.15 60.0587 Q1309.15 66.3781 1304.12 70.0644 Q1299.14 73.7508 1290.39 73.7508 Q1286.75 73.7508 1282.78 73.0216 Q1278.85 72.3329 1274.47 70.9151 L1274.47 63.2184 Q1278.6 65.3654 1282.61 66.4591 Q1286.62 67.5124 1290.55 67.5124 Q1295.82 67.5124 1298.65 65.73 Q1301.49 63.9071 1301.49 60.6258 Q1301.49 57.5877 1299.42 55.9673 Q1297.4 54.3469 1290.47 52.8481 L1287.88 52.2405 Q1280.95 50.7821 1277.87 47.7845 Q1274.79 44.7463 1274.79 39.4801 Q1274.79 33.0797 1279.33 29.5959 Q1283.87 26.1121 1292.21 26.1121 Q1296.35 26.1121 1299.99 26.7198 Q1303.64 27.3274 1306.72 28.5427 Z" fill="#000000" fill-rule="evenodd" fill-opacity="1" /><path clip-path="url(#clip890)" d="M1328.39 14.324 L1328.39 27.2059 L1343.74 27.2059 L1343.74 32.9987 L1328.39 32.9987 L1328.39 57.6282 Q1328.39 63.1779 1329.89 64.7578 Q1331.43 66.3376 1336.09 66.3376 L1343.74 66.3376 L1343.74 72.576 L1336.09 72.576 Q1327.46 72.576 1324.18 69.3758 Q1320.89 66.1351 1320.89 57.6282 L1320.89 32.9987 L1315.43 32.9987 L1315.43 27.2059 L1320.89 27.2059 L1320.89 14.324 L1328.39 14.324 Z" fill="#000000" fill-rule="evenodd" fill-opacity="1" /><path clip-path="url(#clip890)" d="M1402.88 9.54393 L1402.88 15.7418 L1395.75 15.7418 Q1391.74 15.7418 1390.16 17.3622 Q1388.63 18.9825 1388.63 23.1955 L1388.63 27.2059 L1400.9 27.2059 L1400.9 32.9987 L1388.63 32.9987 L1388.63 72.576 L1381.13 72.576 L1381.13 32.9987 L1374 32.9987 L1374 27.2059 L1381.13 27.2059 L1381.13 24.0462 Q1381.13 16.471 1384.66 13.0277 Q1388.18 9.54393 1395.84 9.54393 L1402.88 9.54393 Z" fill="#000000" fill-rule="evenodd" fill-opacity="1" /><path clip-path="url(#clip890)" d="M1426.7 32.4315 Q1420.71 32.4315 1417.22 37.1306 Q1413.74 41.7891 1413.74 49.9314 Q1413.74 58.0738 1417.18 62.7728 Q1420.67 67.4314 1426.7 67.4314 Q1432.66 67.4314 1436.14 62.7323 Q1439.63 58.0333 1439.63 49.9314 Q1439.63 41.8701 1436.14 37.1711 Q1432.66 32.4315 1426.7 32.4315 M1426.7 26.1121 Q1436.43 26.1121 1441.98 32.4315 Q1447.53 38.7509 1447.53 49.9314 Q1447.53 61.0714 1441.98 67.4314 Q1436.43 73.7508 1426.7 73.7508 Q1416.94 73.7508 1411.39 67.4314 Q1405.88 61.0714 1405.88 49.9314 Q1405.88 38.7509 1411.39 32.4315 Q1416.94 26.1121 1426.7 26.1121 Z" fill="#000000" fill-rule="evenodd" fill-opacity="1" /><path clip-path="url(#clip890)" d="M1486.17 34.1734 Q1484.92 33.4443 1483.42 33.1202 Q1481.96 32.7556 1480.18 32.7556 Q1473.86 32.7556 1470.45 36.8875 Q1467.09 40.9789 1467.09 48.6757 L1467.09 72.576 L1459.6 72.576 L1459.6 27.2059 L1467.09 27.2059 L1467.09 34.2544 Q1469.44 30.1225 1473.21 28.1376 Q1476.98 26.1121 1482.36 26.1121 Q1483.13 26.1121 1484.06 26.2337 Q1485 26.3147 1486.13 26.5172 L1486.17 34.1734 Z" fill="#000000" fill-rule="evenodd" fill-opacity="1" /><path clip-path="url(#clip890)" d="M1520.68 12.096 L1531.7 12.096 L1558.52 62.6918 L1558.52 12.096 L1566.46 12.096 L1566.46 72.576 L1555.44 72.576 L1528.62 21.9802 L1528.62 72.576 L1520.68 72.576 L1520.68 12.096 Z" fill="#000000" fill-rule="evenodd" fill-opacity="1" /><path clip-path="url(#clip890)" d="M1607.29 17.6457 Q1598.38 17.6457 1593.11 24.2892 Q1587.89 30.9327 1587.89 42.3968 Q1587.89 53.8203 1593.11 60.4638 Q1598.38 67.1073 1607.29 67.1073 Q1616.21 67.1073 1621.39 60.4638 Q1626.62 53.8203 1626.62 42.3968 Q1626.62 30.9327 1621.39 24.2892 Q1616.21 17.6457 1607.29 17.6457 M1607.29 11.0023 Q1620.01 11.0023 1627.63 19.5497 Q1635.24 28.0566 1635.24 42.3968 Q1635.24 56.6965 1627.63 65.2439 Q1620.01 73.7508 1607.29 73.7508 Q1594.53 73.7508 1586.88 65.2439 Q1579.26 56.737 1579.26 42.3968 Q1579.26 28.0566 1586.88 19.5497 Q1594.53 11.0023 1607.29 11.0023 Z" fill="#000000" fill-rule="evenodd" fill-opacity="1" /><path clip-path="url(#clip890)" d="M1648.05 12.096 L1656.23 12.096 L1656.23 65.6895 L1685.68 65.6895 L1685.68 72.576 L1648.05 72.576 L1648.05 12.096 Z" fill="#000000" fill-rule="evenodd" fill-opacity="1" /><path clip-path="url(#clip890)" d="M1716.38 20.1573 L1705.28 50.2555 L1727.52 50.2555 L1716.38 20.1573 M1711.77 12.096 L1721.04 12.096 L1744.09 72.576 L1735.59 72.576 L1730.08 57.061 L1702.81 57.061 L1697.3 72.576 L1688.68 72.576 L1711.77 12.096 Z" fill="#000000" fill-rule="evenodd" fill-opacity="1" /><polyline clip-path="url(#clip892)" style="stroke:#009af9; stroke-linecap:round; stroke-linejoin:round; stroke-width:8; stroke-opacity:1; fill:none" points="264.778,1297.9 371.471,1266.11 478.164,1222.01 584.857,1177.45 691.55,1108.48 798.242,1040.4 904.935,961.039 1011.63,874.79 1118.32,832.131 1225.01,814.612 1331.71,805.379 1438.4,817.643 1545.09,1343.72 1651.78,1341.94 1758.48,1341.4 1865.17,1342.5 1971.86,1343.52 2078.56,1360.29 2185.25,1369.48 2291.94,1369.48 "/>
<polyline clip-path="url(#clip892)" style="stroke:#e26f46; stroke-linecap:round; stroke-linejoin:round; stroke-width:8; stroke-opacity:1; fill:none" points="264.778,1297.9 371.471,1265.75 478.164,1223.59 584.857,1183.63 691.55,1121.95 798.242,1062.57 904.935,994.115 1011.63,922.386 1118.32,890.409 1225.01,876.782 1331.71,868.456 1438.4,879.37 1545.09,1350.19 1651.78,1348.6 1758.48,1348.11 1865.17,1349.09 1971.86,1350 2078.56,1365 2185.25,1373.23 2291.94,1373.23 "/>
<polyline clip-path="url(#clip892)" style="stroke:#3da44d; stroke-linecap:round; stroke-linejoin:round; stroke-width:8; stroke-opacity:1; fill:none" points="264.778,1297.9 371.471,1271.22 478.164,1243.5 584.857,1222.69 691.55,1188.17 798.242,1160.25 904.935,1130.36 1011.63,1103.27 1118.32,1104.32 1225.01,1116.31 1331.71,1111.38 1438.4,1116.97 1545.09,1373.99 1651.78,1373.09 1758.48,1372.78 1865.17,1373.28 1971.86,1373.75 2078.56,1381.92 2185.25,1386.4 2291.94,1386.4 "/>
<polyline clip-path="url(#clip892)" style="stroke:#c271d2; stroke-linecap:round; stroke-linejoin:round; stroke-width:8; stroke-opacity:1; fill:none" points="264.778,1297.9 371.471,1265.19 478.164,1224.03 584.857,1188.42 691.55,1133.85 798.242,1083.62 904.935,1028 1011.63,973.79 1118.32,959.155 1225.01,962.892 1331.71,955.756 1438.4,964.71 1545.09,1358.33 1651.78,1356.98 1758.48,1356.55 1865.17,1357.36 1971.86,1358.1 2078.56,1370.64 2185.25,1377.51 2291.94,1377.51 "/>
<polyline clip-path="url(#clip892)" style="stroke:#ac8d18; stroke-linecap:round; stroke-linejoin:round; stroke-width:8; stroke-opacity:1; fill:none" points="264.778,1297.9 371.471,1263.39 478.164,1206.29 584.857,1135.41 691.55,1019.31 798.242,883.484 904.935,706.503 1011.63,490.349 1118.32,322.052 1225.01,178.45 1331.71,160.256 1438.4,186.776 1545.09,1281.64 1651.78,1278.04 1758.48,1277 1865.17,1279.38 1971.86,1281.59 2078.56,1316.55 2185.25,1335.72 2291.94,1335.72 "/>
<path clip-path="url(#clip890)" d="M1953.1 477.836 L2281.13 477.836 L2281.13 166.796 L1953.1 166.796  Z" fill="#ffffff" fill-rule="evenodd" fill-opacity="1"/>
<polyline clip-path="url(#clip890)" style="stroke:#000000; stroke-linecap:round; stroke-linejoin:round; stroke-width:4; stroke-opacity:1; fill:none" points="1953.1,477.836 2281.13,477.836 2281.13,166.796 1953.1,166.796 1953.1,477.836 "/>
<polyline clip-path="url(#clip890)" style="stroke:#009af9; stroke-linecap:round; stroke-linejoin:round; stroke-width:8; stroke-opacity:1; fill:none" points="1976.98,218.636 2120.23,218.636 "/>
<path clip-path="url(#clip890)" d="M2166.35 202.49 L2166.35 207.05 Q2163.69 205.777 2161.33 205.152 Q2158.97 204.527 2156.77 204.527 Q2152.95 204.527 2150.87 206.008 Q2148.81 207.49 2148.81 210.221 Q2148.81 212.513 2150.17 213.694 Q2151.56 214.851 2155.4 215.569 L2158.23 216.147 Q2163.46 217.143 2165.94 219.666 Q2168.44 222.166 2168.44 226.379 Q2168.44 231.402 2165.06 233.994 Q2161.7 236.587 2155.19 236.587 Q2152.74 236.587 2149.96 236.031 Q2147.21 235.476 2144.25 234.388 L2144.25 229.573 Q2147.09 231.17 2149.82 231.981 Q2152.56 232.791 2155.19 232.791 Q2159.2 232.791 2161.37 231.217 Q2163.55 229.643 2163.55 226.726 Q2163.55 224.18 2161.98 222.744 Q2160.43 221.309 2156.86 220.592 L2154.01 220.036 Q2148.78 218.995 2146.44 216.772 Q2144.11 214.55 2144.11 210.592 Q2144.11 206.008 2147.32 203.37 Q2150.56 200.731 2156.24 200.731 Q2158.67 200.731 2161.19 201.171 Q2163.71 201.61 2166.35 202.49 Z" fill="#000000" fill-rule="evenodd" fill-opacity="1" /><path clip-path="url(#clip890)" d="M2196.44 202.49 L2196.44 207.05 Q2193.78 205.777 2191.42 205.152 Q2189.06 204.527 2186.86 204.527 Q2183.04 204.527 2180.96 206.008 Q2178.9 207.49 2178.9 210.221 Q2178.9 212.513 2180.26 213.694 Q2181.65 214.851 2185.5 215.569 L2188.32 216.147 Q2193.55 217.143 2196.03 219.666 Q2198.53 222.166 2198.53 226.379 Q2198.53 231.402 2195.15 233.994 Q2191.79 236.587 2185.29 236.587 Q2182.83 236.587 2180.06 236.031 Q2177.3 235.476 2174.34 234.388 L2174.34 229.573 Q2177.19 231.17 2179.92 231.981 Q2182.65 232.791 2185.29 232.791 Q2189.29 232.791 2191.47 231.217 Q2193.64 229.643 2193.64 226.726 Q2193.64 224.18 2192.07 222.744 Q2190.52 221.309 2186.95 220.592 L2184.11 220.036 Q2178.87 218.995 2176.54 216.772 Q2174.2 214.55 2174.2 210.592 Q2174.2 206.008 2177.42 203.37 Q2180.66 200.731 2186.33 200.731 Q2188.76 200.731 2191.28 201.171 Q2193.81 201.61 2196.44 202.49 Z" fill="#000000" fill-rule="evenodd" fill-opacity="1" /><path clip-path="url(#clip890)" d="M2210.5 205.198 L2210.5 218.184 L2216.37 218.184 Q2219.64 218.184 2221.42 216.495 Q2223.2 214.805 2223.2 211.68 Q2223.2 208.578 2221.42 206.888 Q2219.64 205.198 2216.37 205.198 L2210.5 205.198 M2205.82 201.356 L2216.37 201.356 Q2222.18 201.356 2225.15 203.995 Q2228.13 206.61 2228.13 211.68 Q2228.13 216.795 2225.15 219.411 Q2222.18 222.027 2216.37 222.027 L2210.5 222.027 L2210.5 235.916 L2205.82 235.916 L2205.82 201.356 Z" fill="#000000" fill-rule="evenodd" fill-opacity="1" /><path clip-path="url(#clip890)" d="M2235.63 231.981 L2243.27 231.981 L2243.27 205.615 L2234.96 207.282 L2234.96 203.022 L2243.23 201.356 L2247.9 201.356 L2247.9 231.981 L2255.54 231.981 L2255.54 235.916 L2235.63 235.916 L2235.63 231.981 Z" fill="#000000" fill-rule="evenodd" fill-opacity="1" /><polyline clip-path="url(#clip890)" style="stroke:#e26f46; stroke-linecap:round; stroke-linejoin:round; stroke-width:8; stroke-opacity:1; fill:none" points="1976.98,270.476 2120.23,270.476 "/>
<path clip-path="url(#clip890)" d="M2166.35 254.33 L2166.35 258.89 Q2163.69 257.617 2161.33 256.992 Q2158.97 256.367 2156.77 256.367 Q2152.95 256.367 2150.87 257.848 Q2148.81 259.33 2148.81 262.061 Q2148.81 264.353 2150.17 265.534 Q2151.56 266.691 2155.4 267.409 L2158.23 267.987 Q2163.46 268.983 2165.94 271.506 Q2168.44 274.006 2168.44 278.219 Q2168.44 283.242 2165.06 285.834 Q2161.7 288.427 2155.19 288.427 Q2152.74 288.427 2149.96 287.871 Q2147.21 287.316 2144.25 286.228 L2144.25 281.413 Q2147.09 283.01 2149.82 283.821 Q2152.56 284.631 2155.19 284.631 Q2159.2 284.631 2161.37 283.057 Q2163.55 281.483 2163.55 278.566 Q2163.55 276.02 2161.98 274.584 Q2160.43 273.149 2156.86 272.432 L2154.01 271.876 Q2148.78 270.835 2146.44 268.612 Q2144.11 266.39 2144.11 262.432 Q2144.11 257.848 2147.32 255.21 Q2150.56 252.571 2156.24 252.571 Q2158.67 252.571 2161.19 253.011 Q2163.71 253.45 2166.35 254.33 Z" fill="#000000" fill-rule="evenodd" fill-opacity="1" /><path clip-path="url(#clip890)" d="M2196.44 254.33 L2196.44 258.89 Q2193.78 257.617 2191.42 256.992 Q2189.06 256.367 2186.86 256.367 Q2183.04 256.367 2180.96 257.848 Q2178.9 259.33 2178.9 262.061 Q2178.9 264.353 2180.26 265.534 Q2181.65 266.691 2185.5 267.409 L2188.32 267.987 Q2193.55 268.983 2196.03 271.506 Q2198.53 274.006 2198.53 278.219 Q2198.53 283.242 2195.15 285.834 Q2191.79 288.427 2185.29 288.427 Q2182.83 288.427 2180.06 287.871 Q2177.3 287.316 2174.34 286.228 L2174.34 281.413 Q2177.19 283.01 2179.92 283.821 Q2182.65 284.631 2185.29 284.631 Q2189.29 284.631 2191.47 283.057 Q2193.64 281.483 2193.64 278.566 Q2193.64 276.02 2192.07 274.584 Q2190.52 273.149 2186.95 272.432 L2184.11 271.876 Q2178.87 270.835 2176.54 268.612 Q2174.2 266.39 2174.2 262.432 Q2174.2 257.848 2177.42 255.21 Q2180.66 252.571 2186.33 252.571 Q2188.76 252.571 2191.28 253.011 Q2193.81 253.45 2196.44 254.33 Z" fill="#000000" fill-rule="evenodd" fill-opacity="1" /><path clip-path="url(#clip890)" d="M2210.5 257.038 L2210.5 270.024 L2216.37 270.024 Q2219.64 270.024 2221.42 268.335 Q2223.2 266.645 2223.2 263.52 Q2223.2 260.418 2221.42 258.728 Q2219.64 257.038 2216.37 257.038 L2210.5 257.038 M2205.82 253.196 L2216.37 253.196 Q2222.18 253.196 2225.15 255.835 Q2228.13 258.45 2228.13 263.52 Q2228.13 268.635 2225.15 271.251 Q2222.18 273.867 2216.37 273.867 L2210.5 273.867 L2210.5 287.756 L2205.82 287.756 L2205.82 253.196 Z" fill="#000000" fill-rule="evenodd" fill-opacity="1" /><path clip-path="url(#clip890)" d="M2238.85 283.821 L2255.17 283.821 L2255.17 287.756 L2233.23 287.756 L2233.23 283.821 Q2235.89 281.066 2240.47 276.436 Q2245.08 271.784 2246.26 270.441 Q2248.5 267.918 2249.38 266.182 Q2250.29 264.423 2250.29 262.733 Q2250.29 259.978 2248.34 258.242 Q2246.42 256.506 2243.32 256.506 Q2241.12 256.506 2238.67 257.27 Q2236.24 258.034 2233.46 259.585 L2233.46 254.862 Q2236.28 253.728 2238.74 253.149 Q2241.19 252.571 2243.23 252.571 Q2248.6 252.571 2251.79 255.256 Q2254.99 257.941 2254.99 262.432 Q2254.99 264.561 2254.18 266.483 Q2253.39 268.381 2251.28 270.973 Q2250.7 271.645 2247.6 274.862 Q2244.5 278.057 2238.85 283.821 Z" fill="#000000" fill-rule="evenodd" fill-opacity="1" /><polyline clip-path="url(#clip890)" style="stroke:#3da44d; stroke-linecap:round; stroke-linejoin:round; stroke-width:8; stroke-opacity:1; fill:none" points="1976.98,322.316 2120.23,322.316 "/>
<path clip-path="url(#clip890)" d="M2166.35 306.17 L2166.35 310.73 Q2163.69 309.457 2161.33 308.832 Q2158.97 308.207 2156.77 308.207 Q2152.95 308.207 2150.87 309.688 Q2148.81 311.17 2148.81 313.901 Q2148.81 316.193 2150.17 317.374 Q2151.56 318.531 2155.4 319.249 L2158.23 319.827 Q2163.46 320.823 2165.94 323.346 Q2168.44 325.846 2168.44 330.059 Q2168.44 335.082 2165.06 337.674 Q2161.7 340.267 2155.19 340.267 Q2152.74 340.267 2149.96 339.711 Q2147.21 339.156 2144.25 338.068 L2144.25 333.253 Q2147.09 334.85 2149.82 335.661 Q2152.56 336.471 2155.19 336.471 Q2159.2 336.471 2161.37 334.897 Q2163.55 333.323 2163.55 330.406 Q2163.55 327.86 2161.98 326.424 Q2160.43 324.989 2156.86 324.272 L2154.01 323.716 Q2148.78 322.675 2146.44 320.452 Q2144.11 318.23 2144.11 314.272 Q2144.11 309.688 2147.32 307.05 Q2150.56 304.411 2156.24 304.411 Q2158.67 304.411 2161.19 304.851 Q2163.71 305.29 2166.35 306.17 Z" fill="#000000" fill-rule="evenodd" fill-opacity="1" /><path clip-path="url(#clip890)" d="M2196.44 306.17 L2196.44 310.73 Q2193.78 309.457 2191.42 308.832 Q2189.06 308.207 2186.86 308.207 Q2183.04 308.207 2180.96 309.688 Q2178.9 311.17 2178.9 313.901 Q2178.9 316.193 2180.26 317.374 Q2181.65 318.531 2185.5 319.249 L2188.32 319.827 Q2193.55 320.823 2196.03 323.346 Q2198.53 325.846 2198.53 330.059 Q2198.53 335.082 2195.15 337.674 Q2191.79 340.267 2185.29 340.267 Q2182.83 340.267 2180.06 339.711 Q2177.3 339.156 2174.34 338.068 L2174.34 333.253 Q2177.19 334.85 2179.92 335.661 Q2182.65 336.471 2185.29 336.471 Q2189.29 336.471 2191.47 334.897 Q2193.64 333.323 2193.64 330.406 Q2193.64 327.86 2192.07 326.424 Q2190.52 324.989 2186.95 324.272 L2184.11 323.716 Q2178.87 322.675 2176.54 320.452 Q2174.2 318.23 2174.2 314.272 Q2174.2 309.688 2177.42 307.05 Q2180.66 304.411 2186.33 304.411 Q2188.76 304.411 2191.28 304.851 Q2193.81 305.29 2196.44 306.17 Z" fill="#000000" fill-rule="evenodd" fill-opacity="1" /><path clip-path="url(#clip890)" d="M2210.5 308.878 L2210.5 321.864 L2216.37 321.864 Q2219.64 321.864 2221.42 320.175 Q2223.2 318.485 2223.2 315.36 Q2223.2 312.258 2221.42 310.568 Q2219.64 308.878 2216.37 308.878 L2210.5 308.878 M2205.82 305.036 L2216.37 305.036 Q2222.18 305.036 2225.15 307.675 Q2228.13 310.29 2228.13 315.36 Q2228.13 320.475 2225.15 323.091 Q2222.18 325.707 2216.37 325.707 L2210.5 325.707 L2210.5 339.596 L2205.82 339.596 L2205.82 305.036 Z" fill="#000000" fill-rule="evenodd" fill-opacity="1" /><path clip-path="url(#clip890)" d="M2248.99 320.962 Q2252.35 321.679 2254.22 323.948 Q2256.12 326.216 2256.12 329.549 Q2256.12 334.665 2252.6 337.466 Q2249.08 340.267 2242.6 340.267 Q2240.43 340.267 2238.11 339.827 Q2235.82 339.411 2233.37 338.554 L2233.37 334.04 Q2235.31 335.174 2237.62 335.753 Q2239.94 336.332 2242.46 336.332 Q2246.86 336.332 2249.15 334.596 Q2251.47 332.86 2251.47 329.549 Q2251.47 326.494 2249.31 324.781 Q2247.18 323.045 2243.37 323.045 L2239.34 323.045 L2239.34 319.202 L2243.55 319.202 Q2247 319.202 2248.83 317.837 Q2250.66 316.448 2250.66 313.855 Q2250.66 311.193 2248.76 309.781 Q2246.88 308.346 2243.37 308.346 Q2241.44 308.346 2239.24 308.763 Q2237.05 309.179 2234.41 310.059 L2234.41 305.892 Q2237.07 305.151 2239.38 304.781 Q2241.72 304.411 2243.78 304.411 Q2249.11 304.411 2252.21 306.841 Q2255.31 309.249 2255.31 313.369 Q2255.31 316.239 2253.67 318.23 Q2252.02 320.198 2248.99 320.962 Z" fill="#000000" fill-rule="evenodd" fill-opacity="1" /><polyline clip-path="url(#clip890)" style="stroke:#c271d2; stroke-linecap:round; stroke-linejoin:round; stroke-width:8; stroke-opacity:1; fill:none" points="1976.98,374.156 2120.23,374.156 "/>
<path clip-path="url(#clip890)" d="M2166.35 358.01 L2166.35 362.57 Q2163.69 361.297 2161.33 360.672 Q2158.97 360.047 2156.77 360.047 Q2152.95 360.047 2150.87 361.528 Q2148.81 363.01 2148.81 365.741 Q2148.81 368.033 2150.17 369.214 Q2151.56 370.371 2155.4 371.089 L2158.23 371.667 Q2163.46 372.663 2165.94 375.186 Q2168.44 377.686 2168.44 381.899 Q2168.44 386.922 2165.06 389.514 Q2161.7 392.107 2155.19 392.107 Q2152.74 392.107 2149.96 391.551 Q2147.21 390.996 2144.25 389.908 L2144.25 385.093 Q2147.09 386.69 2149.82 387.501 Q2152.56 388.311 2155.19 388.311 Q2159.2 388.311 2161.37 386.737 Q2163.55 385.163 2163.55 382.246 Q2163.55 379.7 2161.98 378.264 Q2160.43 376.829 2156.86 376.112 L2154.01 375.556 Q2148.78 374.515 2146.44 372.292 Q2144.11 370.07 2144.11 366.112 Q2144.11 361.528 2147.32 358.89 Q2150.56 356.251 2156.24 356.251 Q2158.67 356.251 2161.19 356.691 Q2163.71 357.13 2166.35 358.01 Z" fill="#000000" fill-rule="evenodd" fill-opacity="1" /><path clip-path="url(#clip890)" d="M2196.44 358.01 L2196.44 362.57 Q2193.78 361.297 2191.42 360.672 Q2189.06 360.047 2186.86 360.047 Q2183.04 360.047 2180.96 361.528 Q2178.9 363.01 2178.9 365.741 Q2178.9 368.033 2180.26 369.214 Q2181.65 370.371 2185.5 371.089 L2188.32 371.667 Q2193.55 372.663 2196.03 375.186 Q2198.53 377.686 2198.53 381.899 Q2198.53 386.922 2195.15 389.514 Q2191.79 392.107 2185.29 392.107 Q2182.83 392.107 2180.06 391.551 Q2177.3 390.996 2174.34 389.908 L2174.34 385.093 Q2177.19 386.69 2179.92 387.501 Q2182.65 388.311 2185.29 388.311 Q2189.29 388.311 2191.47 386.737 Q2193.64 385.163 2193.64 382.246 Q2193.64 379.7 2192.07 378.264 Q2190.52 376.829 2186.95 376.112 L2184.11 375.556 Q2178.87 374.515 2176.54 372.292 Q2174.2 370.07 2174.2 366.112 Q2174.2 361.528 2177.42 358.89 Q2180.66 356.251 2186.33 356.251 Q2188.76 356.251 2191.28 356.691 Q2193.81 357.13 2196.44 358.01 Z" fill="#000000" fill-rule="evenodd" fill-opacity="1" /><path clip-path="url(#clip890)" d="M2210.5 360.718 L2210.5 373.704 L2216.37 373.704 Q2219.64 373.704 2221.42 372.015 Q2223.2 370.325 2223.2 367.2 Q2223.2 364.098 2221.42 362.408 Q2219.64 360.718 2216.37 360.718 L2210.5 360.718 M2205.82 356.876 L2216.37 356.876 Q2222.18 356.876 2225.15 359.515 Q2228.13 362.13 2228.13 367.2 Q2228.13 372.315 2225.15 374.931 Q2222.18 377.547 2216.37 377.547 L2210.5 377.547 L2210.5 391.436 L2205.82 391.436 L2205.82 356.876 Z" fill="#000000" fill-rule="evenodd" fill-opacity="1" /><path clip-path="url(#clip890)" d="M2247.67 360.95 L2235.87 379.399 L2247.67 379.399 L2247.67 360.95 M2246.44 356.876 L2252.32 356.876 L2252.32 379.399 L2257.25 379.399 L2257.25 383.288 L2252.32 383.288 L2252.32 391.436 L2247.67 391.436 L2247.67 383.288 L2232.07 383.288 L2232.07 378.774 L2246.44 356.876 Z" fill="#000000" fill-rule="evenodd" fill-opacity="1" /><polyline clip-path="url(#clip890)" style="stroke:#ac8d18; stroke-linecap:round; stroke-linejoin:round; stroke-width:8; stroke-opacity:1; fill:none" points="1976.98,425.996 2120.23,425.996 "/>
<path clip-path="url(#clip890)" d="M2166.35 409.85 L2166.35 414.41 Q2163.69 413.137 2161.33 412.512 Q2158.97 411.887 2156.77 411.887 Q2152.95 411.887 2150.87 413.368 Q2148.81 414.85 2148.81 417.581 Q2148.81 419.873 2150.17 421.054 Q2151.56 422.211 2155.4 422.929 L2158.23 423.507 Q2163.46 424.503 2165.94 427.026 Q2168.44 429.526 2168.44 433.739 Q2168.44 438.762 2165.06 441.354 Q2161.7 443.947 2155.19 443.947 Q2152.74 443.947 2149.96 443.391 Q2147.21 442.836 2144.25 441.748 L2144.25 436.933 Q2147.09 438.53 2149.82 439.341 Q2152.56 440.151 2155.19 440.151 Q2159.2 440.151 2161.37 438.577 Q2163.55 437.003 2163.55 434.086 Q2163.55 431.54 2161.98 430.104 Q2160.43 428.669 2156.86 427.952 L2154.01 427.396 Q2148.78 426.355 2146.44 424.132 Q2144.11 421.91 2144.11 417.952 Q2144.11 413.368 2147.32 410.73 Q2150.56 408.091 2156.24 408.091 Q2158.67 408.091 2161.19 408.531 Q2163.71 408.97 2166.35 409.85 Z" fill="#000000" fill-rule="evenodd" fill-opacity="1" /><path clip-path="url(#clip890)" d="M2196.44 409.85 L2196.44 414.41 Q2193.78 413.137 2191.42 412.512 Q2189.06 411.887 2186.86 411.887 Q2183.04 411.887 2180.96 413.368 Q2178.9 414.85 2178.9 417.581 Q2178.9 419.873 2180.26 421.054 Q2181.65 422.211 2185.5 422.929 L2188.32 423.507 Q2193.55 424.503 2196.03 427.026 Q2198.53 429.526 2198.53 433.739 Q2198.53 438.762 2195.15 441.354 Q2191.79 443.947 2185.29 443.947 Q2182.83 443.947 2180.06 443.391 Q2177.3 442.836 2174.34 441.748 L2174.34 436.933 Q2177.19 438.53 2179.92 439.341 Q2182.65 440.151 2185.29 440.151 Q2189.29 440.151 2191.47 438.577 Q2193.64 437.003 2193.64 434.086 Q2193.64 431.54 2192.07 430.104 Q2190.52 428.669 2186.95 427.952 L2184.11 427.396 Q2178.87 426.355 2176.54 424.132 Q2174.2 421.91 2174.2 417.952 Q2174.2 413.368 2177.42 410.73 Q2180.66 408.091 2186.33 408.091 Q2188.76 408.091 2191.28 408.531 Q2193.81 408.97 2196.44 409.85 Z" fill="#000000" fill-rule="evenodd" fill-opacity="1" /><path clip-path="url(#clip890)" d="M2210.5 412.558 L2210.5 425.544 L2216.37 425.544 Q2219.64 425.544 2221.42 423.855 Q2223.2 422.165 2223.2 419.04 Q2223.2 415.938 2221.42 414.248 Q2219.64 412.558 2216.37 412.558 L2210.5 412.558 M2205.82 408.716 L2216.37 408.716 Q2222.18 408.716 2225.15 411.355 Q2228.13 413.97 2228.13 419.04 Q2228.13 424.155 2225.15 426.771 Q2222.18 429.387 2216.37 429.387 L2210.5 429.387 L2210.5 443.276 L2205.82 443.276 L2205.82 408.716 Z" fill="#000000" fill-rule="evenodd" fill-opacity="1" /><path clip-path="url(#clip890)" d="M2234.87 408.716 L2253.23 408.716 L2253.23 412.651 L2239.15 412.651 L2239.15 421.123 Q2240.17 420.776 2241.19 420.614 Q2242.21 420.429 2243.23 420.429 Q2249.01 420.429 2252.39 423.6 Q2255.77 426.771 2255.77 432.188 Q2255.77 437.766 2252.3 440.868 Q2248.83 443.947 2242.51 443.947 Q2240.33 443.947 2238.06 443.577 Q2235.82 443.206 2233.41 442.466 L2233.41 437.766 Q2235.49 438.901 2237.72 439.456 Q2239.94 440.012 2242.42 440.012 Q2246.42 440.012 2248.76 437.905 Q2251.1 435.799 2251.1 432.188 Q2251.1 428.577 2248.76 426.47 Q2246.42 424.364 2242.42 424.364 Q2240.54 424.364 2238.67 424.78 Q2236.81 425.197 2234.87 426.077 L2234.87 408.716 Z" fill="#000000" fill-rule="evenodd" fill-opacity="1" /></svg>
